PathFileType	4	(X/Y/Z)	/Users/niels/Desktop/University/Third Semester/Perception and Action/Exam/Gymnastics Motion Tracking/Code for Gym Tracking/Analyzed Data/Webcam_Backflip/id2_5_pure_Sports2D/id2_5_pure_Sports2D_px_person00.trc
DataRate	CameraRate	NumFrames	NumMarkers	Units	OrigDataRate	OrigDataStartFrame	OrigNumFrames
29.874476987447697	29.874476987447697	11	22	m	29.874476987447697	0	239
Frame#	Time	Hip			RHip			RKnee			RAnkle			RBigToe			RSmallToe			RHeel			LHip			LKnee			LAnkle			LBigToe			LSmallToe			LHeel			Neck			Head			Nose			RShoulder			RElbow			RWrist			LShoulder			LElbow			LWrist		
		X1	Y1	Z1	X2	Y2	Z2	X3	Y3	Z3	X4	Y4	Z4	X5	Y5	Z5	X6	Y6	Z6	X7	Y7	Z7	X8	Y8	Z8	X9	Y9	Z9	X10	Y10	Z10	X11	Y11	Z11	X12	Y12	Z12	X13	Y13	Z13	X14	Y14	Z14	X15	Y15	Z15	X16	Y16	Z16	X17	Y17	Z17	X18	Y18	Z18	X19	Y19	Z19	X20	Y20	Z20	X21	Y21	Z21	X22	Y22	Z22
0	0.0	0.9713687946357784	-0.5604429652973442	0.0	0.9713735571549899	-0.5583159361960404	0.0	0.9713764853580256	-0.6750327914851382	0.0	0.9501594233951421	-0.7959996100691584	0.0	0.9798689055954299	-0.8129798502205995	0.0	0.9692617206408234	-0.8193483049946348	0.0	0.9416665378245616	-0.8129768785944822	0.0	0.9756165224373324	-0.5583152775540932	0.0	0.9756204293791416	-0.6729136375051057	0.0	0.9565206373065249	-0.7875080340569126	0.0	0.9989652805888269	-0.8002438133305693	0.0	0.996833201669598	-0.7959991957090531	0.0	0.9458973839569467	-0.8002367656715784	0.0	0.9734979390398665	-0.4034027732034537	0.0	0.9926175968610699	-0.32487624208744614	0.0	0.9947285764125542	-0.3652053210934737	0.0	0.9628942022603206	-0.40763979542311324	0.0	0.960785466000706	-0.31850693318503576	0.0	0.960804023053219	-0.24847349687786052	0.0	0.9735010490588532	-0.4097556358919458	0.0	0.9756420979443708	-0.32486843622680855	0.0	0.9671782214274962	-0.261203771113006	0.0
1	0.033473389355742296	0.9717626969444453	-0.5588705281268916	0.0	0.9719246920670142	-0.5576008774934662	0.0	0.9719219063351152	-0.6742689026675432	0.0	0.950067060860153	-0.7954564870369587	0.0	0.9802485217344161	-0.8121477017994737	0.0	0.9697568798669405	-0.8181565088901708	0.0	0.9416473208073216	-0.8121988577945423	0.0	0.9757988035491187	-0.5576021799506236	0.0	0.9761260773468929	-0.672302765816217	0.0	0.9567735230137477	-0.7866436853854143	0.0	0.998301910179625	-0.8008081143750772	0.0	0.9959813199352135	-0.7963578450389855	0.0	0.9458302818464938	-0.8003056031886654	0.0	0.9735567960211546	-0.4027419686729135	0.0	0.992600049183573	-0.32633772335878	0.0	0.9949865583130167	-0.3651974001014276	0.0	0.9632358757008143	-0.40731998145623094	0.0	0.9612616062908488	-0.3179599582223829	0.0	0.9617189633391386	-0.24725286227898557	0.0	0.9736390196702891	-0.4100880993904794	0.0	0.9748240826584247	-0.3252109924565302	0.0	0.9679236773899694	-0.26164482949799156	0.0
2	0.06694677871148459	0.9720729026111966	-0.557653533804734	0.0	0.9724208882467358	-0.5570720757407971	0.0	0.9724060815204303	-0.673711821010957	0.0	0.9499687463459985	-0.7951284436536108	0.0	0.980511557741765	-0.811599781173854	0.0	0.9701793505390922	-0.8173145949584741	0.0	0.9416451763121438	-0.8117499601006692	0.0	0.9759731009834046	-0.557077277574059	0.0	0.9765516271323793	-0.6719115687067876	0.0	0.9570005978344877	-0.7860802679132038	0.0	0.9978054184354554	-0.801359687561113	0.0	0.9952643450870993	-0.7968224715386826	0.0	0.9458366151123632	-0.800529697185354	0.0	0.9736454431106927	-0.40241314473247264	0.0	0.9927477670625238	-0.3276291238338458	0.0	0.9952759833540681	-0.3653903854243554	0.0	0.9635480189824654	-0.40729258723723155	0.0	0.9616296186562283	-0.31773029324851226	0.0	0.9625258651992654	-0.24649760203452203	0.0	0.973708593116859	-0.41046779614973955	0.0	0.9743392507406203	-0.32567755105364166	0.0	0.9686695730394467	-0.2622776718873515	0.0
3	0.1004201680672269	0.9722793838998106	-0.5570548046912153	0.0	0.9728352605644928	-0.5569205332220097	0.0	0.972801011502377	-0.6735418863148537	0.0	0.9498974839345178	-0.7951177901259985	0.0	0.980514944549378	-0.8115210327586901	0.0	0.9704043912669384	-0.8170073921042368	0.0	0.9417023840377062	-0.8117484537345361	0.0	0.9761076143657192	-0.5569317810874733	0.0	0.9768565909884955	-0.6719076263301653	0.0	0.9571510618340926	-0.7859427318425264	0.0	0.9975060419656453	-0.8019207866587543	0.0	0.9947208080920538	-0.7974693970458927	0.0	0.9459081024955658	-0.8009603355092927	0.0	0.9737979531849406	-0.40260147876372177	0.0	0.99312796987924	-0.3287068502400548	0.0	0.9955893819095578	-0.36587303810264366	0.0	0.9638518157145846	-0.40773670004206225	0.0	0.9619342855191299	-0.31801777103127826	0.0	0.9632152848081796	-0.2465599528941489	0.0	0.9737266125468664	-0.4109718516177395	0.0	0.9744011606464634	-0.3263701025117267	0.0	0.969406522577083	-0.26324541293389053	0.0
4	0.13389355742296918	0.9724424010754857	-0.5571652667021838	0.0	0.9731811192233993	-0.5572657641532174	0.0	0.9731221580080469	-0.673864441522667	0.0	0.9498980978338912	-0.7954038668891996	0.0	0.9802335459825572	-0.8119403328232807	0.0	0.9703805353013323	-0.8172504582234558	0.0	0.941849052818842	-0.8121318118036099	0.0	0.9762087327742334	-0.5572843063722723	0.0	0.9770601413964961	-0.6723519426935494	0.0	0.9572343075520904	-0.7862137656013595	0.0	0.9973702867164755	-0.802551831674987	0.0	0.9943802601566724	-0.7983140085429298	0.0	0.9460753010798485	-0.8015833064733037	0.0	0.973999549062657	-0.4032754642503151	0.0	0.9937255555245043	-0.3296271961262406	0.0	0.9959212504492161	-0.3666216562692693	0.0	0.9641848949183405	-0.4086654687164171	0.0	0.9623009071834958	-0.3188493404568904	0.0	0.9638212196414244	-0.24752168130577534	0.0	0.9737764074289482	-0.41168002993834163	0.0	0.9750329690987041	-0.32730754593243744	0.0	0.9700991562682738	-0.2645417290296036	0.0
5	0.16736694677871147	0.972632758226876	-0.557896201218629	0.0	0.9734793335206684	-0.5580900503325372	0.0	0.9733990468706387	-0.67467954289885	0.0	0.9499873070333499	-0.7959654351131055	0.0	0.9798719383564578	-0.8128117585176092	0.0	0.9702293650855226	-0.8180122093578512	0.0	0.9420663177006161	-0.8128487955159902	0.0	0.9763380429851809	-0.5581141430914702	0.0	0.9772266884832645	-0.6732132055181211	0.0	0.9573826736348288	-0.7868796411182936	0.0	0.9974180380128455	-0.8033652074006267	0.0	0.9943251826718864	-0.7993604585153802	0.0	0.9464840772671879	-0.8024553119336835	0.0	0.9742023446299114	-0.40423489786443056	0.0	0.9945325470325644	-0.3304399019538918	0.0	0.9963216487846637	-0.36757018523922097	0.0	0.9645406798627736	-0.4099476076479131	0.0	0.9627971742204978	-0.3201157161251279	0.0	0.9643626621805828	-0.24915879348998546	0.0	0.9739224681629991	-0.41260963482214846	0.0	0.976072413324639	-0.32841387013180906	0.0	0.9706944353369699	-0.2659843370298396	0.0
6	0.2008403361344538	0.9728500647404217	-0.5590517956213782	0.0	0.9737185639535866	-0.5592633258761013	0.0	0.9736390951230465	-0.6758805355688683	0.0	0.9501483684441875	-0.7968289191229287	0.0	0.9796868599829756	-0.8140905968998519	0.0	0.9701216929694225	-0.8192741919824851	0.0	0.9423271265320605	-0.8139190600870339	0.0	0.9765428654242928	-0.5592851168156211	0.0	0.9774246241286917	-0.674393752227942	0.0	0.9577523528267455	-0.7879560252060538	0.0	0.9976781445673615	-0.8045021541160526	0.0	0.9945603688209392	-0.8006429343048364	0.0	0.9472557708806221	-0.803710180964794	0.0	0.9744102689407174	-0.40523340261141994	0.0	0.9955627470326944	-0.3311641324625175	0.0	0.9968597767917574	-0.3686554940978391	0.0	0.9648785048068725	-0.4113796143836149	0.0	0.9634072050360128	-0.321645174695063	0.0	0.9648730933626322	-0.2511081712851127	0.0	0.974172665457245	-0.41367430421479917	0.0	0.9772377318794002	-0.32957163514325194	0.0	0.9711664670115688	-0.2673211830219607	0.0
7	0.23431372549019608	0.9730182372633781	-0.5604306634811869	0.0	0.9738564632610056	-0.5606224358316181	0.0	0.9738309190918794	-0.6773097375312905	0.0	0.9503602907818863	-0.797972614375014	0.0	0.979710838857744	-0.8156891056048557	0.0	0.9700842952938171	-0.8209592656788482	0.0	0.9426470918060008	-0.8153173314835923	0.0	0.976789833492755	-0.5606244073842329	0.0	0.9776752316364135	-0.6757524429539955	0.0	0.9583432549945703	-0.789417770840037	0.0	0.9980533620731883	-0.8060318295148526	0.0	0.9948969934913262	-0.8021847872443096	0.0	0.9483063876296578	-0.8054013997370801	0.0	0.9746960318590446	-0.4060755735671454	0.0	0.996816112159189	-0.3318117709226539	0.0	0.9975625915449663	-0.36981577820553097	0.0	0.9651836113169597	-0.41274781333534977	0.0	0.9640871253828345	-0.3232294684272463	0.0	0.9654444482740375	-0.25302618413392	0.0	0.9744812599416744	-0.4147057418404421	0.0	0.9782328000082756	-0.33065132465564184	0.0	0.9715587541742524	-0.2683038275096142	0.0
8	0.26778711484593837	0.9730392429359914	-0.5618703594461613	0.0	0.9738437306675846	-0.5620091614136163	0.0	0.9739655139734317	-0.6788122460463284	0.0	0.9506249111689213	-0.7992647447696026	0.0	0.9797775090040146	-0.8174470269264713	0.0	0.9700081283115226	-0.8228592472673775	0.0	0.9430408141528104	-0.8168817684635035	0.0	0.976971901507363	-0.5619618323979066	0.0	0.9779332416406319	-0.6771603517555145	0.0	0.9589672444504274	-0.7911427002894823	0.0	0.9983318217702558	-0.8078590197118456	0.0	0.99506864900709	-0.8039297870313591	0.0	0.9493403627785637	-0.8073669340423073	0.0	0.9751276499611409	-0.40665320827056706	0.0	0.998284694292899	-0.33235530871560093	0.0	0.9984357411836166	-0.37096250151222016	0.0	0.9654914029427994	-0.41386212033184777	0.0	0.9648366858853978	-0.3246288636440075	0.0	0.9662349535963027	-0.2546210998345703	0.0	0.9747714424735248	-0.415525821459045	0.0	0.9788882971626889	-0.33150804726512934	0.0	0.972005497952144	-0.2687094110831919	0.0
9	0.30126050420168066	0.9728461652368471	-0.5632214397569857	0.0	0.9736314750643691	-0.5632473923981534	0.0	0.9740305532510916	-0.6802159970202766	0.0	0.9509535856303379	-0.8005083053994035	0.0	0.9797944830509474	-0.8191710258355563	0.0	0.9698319678938954	-0.8246873664997857	0.0	0.943440457124799	-0.8183420700806113	0.0	0.9769956585793192	-0.5631115700199599	0.0	0.9781213120740516	-0.6785142624797348	0.0	0.9594197986641009	-0.7928745420420151	0.0	0.9983809386556183	-0.809721763433166	0.0	0.9949363039579957	-0.8056868106046682	0.0	0.9500427122942844	-0.8092275266951541	0.0	0.9757164180045196	-0.4069420883313721	0.0	0.9999963384598597	-0.33269514510364295	0.0	0.9995334280043752	-0.3719610590097148	0.0	0.9658567193646447	-0.41456142722644507	0.0	0.9657456281806651	-0.32560192000093974	0.0	0.9674741637722113	-0.2556424791434314	0.0	0.975008830434963	-0.415987341066762	0.0	0.9792626463084855	-0.33199978961449655	0.0	0.9727711813454375	-0.26837446159838413	0.0
10	0.33473389355742295	0.9724037774378194	-0.5643218148360617	0.0	0.9731757253184153	-0.5641291732960216	0.0	0.9740089425098128	-0.6812958637878038	0.0	0.9513456070417022	-0.8014893312676533	0.0	0.9798536472833146	-0.8206431536921795	0.0	0.9696535921522565	-0.826185544756311	0.0	0.9437298081701223	-0.8194156349695273	0.0	0.9768251219705247	-0.5638677563953323	0.0	0.9781818383842508	-0.6796650395779201	0.0	0.9596228790383801	-0.794248010625295	0.0	0.9982434365660322	-0.8112655234484957	0.0	0.9945109102647681	-0.8071429731563478	0.0	0.9502316744292155	-0.8105169503185476	0.0	0.9764077601681512	-0.4069633478775185	0.0	1.0020261928867402	-0.3326959424971852	0.0	1.0009327169326419	-0.37267220245373406	0.0	0.9663176977748947	-0.41470741630928504	0.0	0.9669933368209648	-0.32594493602453783	0.0	0.9694894035345205	-0.2559248362424346	0.0	0.9752214323543223	-0.41594830476025263	0.0	0.9796347585335968	-0.33199605300947965	0.0	0.9742867245364737	-0.2672511001198623	0.0
